<svg width="30" height="30" viewBox="0 0 30 30" fill="none" xmlns="http://www.w3.org/2000/svg">
<path d="M30 26.6667C30 28.5075 28.5075 30 26.6667 30H3.33333C1.49253 30 0 28.5075 0 26.6667V3.33332C0 1.49253 1.49253 0 3.33333 0H26.6667C28.5075 0 30 1.49253 30 3.33332V26.6667Z" fill="#3B88C3"/>
<path d="M13.7183 9.31255H12.1941C10.9541 9.31255 10.4366 8.40837 10.4366 7.53005C10.4366 6.62507 11.0824 5.74675 12.1941 5.74675H15.8624C16.9741 5.74675 17.5941 6.54758 17.5941 7.58088V22.2834C17.5941 23.5759 16.7674 24.2983 15.6558 24.2983C14.5449 24.2983 13.7183 23.5758 13.7183 22.2834V9.31255Z" fill="white"/>
</svg>
