<svg width="30" height="30" viewBox="0 0 30 30" fill="none" xmlns="http://www.w3.org/2000/svg">
<g clip-path="url(#clip0)">
<rect width="30" height="30" fill="white"/>
<path d="M30 26.6667C30 28.5075 28.5075 30 26.6667 30H3.33333C1.49253 30 0 28.5075 0 26.6667V3.33332C0 1.49253 1.49253 0 3.33333 0H26.6667C28.5075 0 30 1.49253 30 3.33332V26.6667Z" fill="#3B88C3"/>
<path d="M20.0917 10.1882C20.0917 11.8165 19.395 13.2373 17.9733 14.1415C19.8333 14.9948 21.125 16.7257 21.125 18.7665C21.125 21.8674 18.2834 24.4766 14.6142 24.4766C10.79 24.4766 8.41333 21.6608 8.41333 19.6191C8.41333 18.6115 9.47249 17.8882 10.4025 17.8882C12.16 17.8882 11.7467 20.9116 14.6659 20.9116C16.01 20.9116 17.095 19.8783 17.095 18.5082C17.095 14.8907 12.7025 17.5524 12.7025 14.5032C12.7025 11.7906 16.3709 13.6249 16.3709 10.7573C16.3709 9.77488 15.6742 9.02568 14.5109 9.02568C12.0567 9.02568 12.3926 11.5574 10.6351 11.5574C9.5759 11.5574 8.95591 10.6016 8.95591 9.64568C8.95591 7.63071 11.7209 5.45981 14.5884 5.45981C18.3092 5.45981 20.0917 8.17314 20.0917 10.1882Z" fill="white"/>
</g>
<defs>
<clipPath id="clip0">
<rect width="30" height="30" fill="white"/>
</clipPath>
</defs>
</svg>
