<svg width="30" height="30" viewBox="0 0 30 30" fill="none" xmlns="http://www.w3.org/2000/svg">
<g clip-path="url(#clip0)">
<rect width="30" height="30" fill="white"/>
<path d="M30 26.6667C30 28.5075 28.5075 30 26.6667 30H3.33333C1.49253 30 0 28.5075 0 26.6667V3.33332C0 1.49253 1.49253 0 3.33333 0H26.6667C28.5075 0 30 1.49253 30 3.33332V26.6667Z" fill="#3B88C3"/>
<path d="M19.2417 20.7581C20.3793 20.7581 21.2584 21.2748 21.2584 22.4631C21.2584 23.6523 20.3792 24.1689 19.3975 24.1689H10.7675C9.63001 24.1689 8.75256 23.6523 8.75256 22.4631C8.75256 21.9214 9.08757 21.4556 9.3459 21.1457C11.4909 18.5882 13.8168 16.2623 15.7801 13.4198C16.2451 12.7482 16.6851 11.9473 16.6851 11.0174C16.6851 9.9582 15.8842 9.02737 14.8242 9.02737C11.8525 9.02737 13.2734 13.2132 10.7934 13.2132C9.55339 13.2132 8.90674 12.3349 8.90674 11.3274C8.90674 8.07156 11.8009 5.46238 14.9793 5.46238C18.1576 5.46238 20.7151 7.55491 20.7151 10.8365C20.7151 14.4274 16.7109 17.994 14.5142 20.7582H19.2417V20.7581Z" fill="white"/>
</g>
<defs>
<clipPath id="clip0">
<rect width="30" height="30" fill="white"/>
</clipPath>
</defs>
</svg>
