<svg width="40" height="40" viewBox="0 0 40 40" fill="none" xmlns="http://www.w3.org/2000/svg">
<path d="M4.99023 19.2969C4.99023 16.5755 5.66406 14.0592 7.01172 11.748C8.35938 9.43685 10.1855 7.61068 12.4902 6.26953C14.7949 4.92839 17.3014 4.25781 20.0098 4.25781C22.041 4.25781 23.9811 4.65495 25.8301 5.44922C27.679 6.24349 29.2741 7.3112 30.6152 8.65234C31.9564 9.99349 33.0241 11.5918 33.8184 13.4473C34.6126 15.3027 35.0098 17.2526 35.0098 19.2969C35.0098 21.3281 34.6126 23.2715 33.8184 25.127C33.0241 26.9824 31.9564 28.5775 30.6152 29.9121C29.2741 31.2467 27.679 32.3079 25.8301 33.0957C23.9811 33.8835 22.041 34.2773 20.0098 34.2773C17.9655 34.2773 16.0156 33.8802 14.1602 33.0859C12.3047 32.2917 10.7064 31.224 9.36523 29.8828C8.02409 28.5417 6.95964 26.9499 6.17188 25.1074C5.38411 23.265 4.99023 21.3281 4.99023 19.2969ZM8.29102 19.2969C8.29102 22.4609 9.44336 25.2083 11.748 27.5391C14.0527 29.8438 16.8066 30.9961 20.0098 30.9961C22.1191 30.9961 24.0723 30.472 25.8691 29.4238C27.666 28.3757 29.0918 26.9531 30.1465 25.1562C31.2012 23.3594 31.7285 21.4062 31.7285 19.2969C31.7285 17.1875 31.2012 15.2311 30.1465 13.4277C29.0918 11.6243 27.666 10.1986 25.8691 9.15039C24.0723 8.10221 22.1191 7.57812 20.0098 7.57812C17.9004 7.57812 15.9473 8.10221 14.1504 9.15039C12.3535 10.1986 10.9277 11.6243 9.87305 13.4277C8.81836 15.2311 8.29102 17.1875 8.29102 19.2969ZM13.5254 16.543C13.4342 16.2435 13.4668 15.9635 13.623 15.7031C13.7663 15.4427 13.9909 15.2669 14.2969 15.1758C14.6029 15.0846 14.8861 15.1172 15.1465 15.2734L18.8574 17.3633V10.4102C18.8574 10.0977 18.9648 9.83398 19.1797 9.61914C19.3945 9.4043 19.6582 9.29688 19.9707 9.29688C20.2832 9.29688 20.5469 9.4043 20.7617 9.61914C20.9766 9.83398 21.084 10.0977 21.084 10.4102V19.2969C21.084 19.6094 20.9766 19.873 20.7617 20.0879C20.5469 20.3027 20.2832 20.4102 19.9707 20.4102C19.6973 20.4102 19.4499 20.3125 19.2285 20.1172L14.0527 17.2266C13.7923 17.0703 13.6165 16.8424 13.5254 16.543Z" fill="white"/>
</svg>
