<svg width="48" height="49" viewBox="0 0 48 49" fill="none" xmlns="http://www.w3.org/2000/svg">
<path d="M24 40C24 36.2381 25.4583 33.0119 28.375 30.3214C31.2917 27.631 34.8333 26.2857 39 26.2857C39 30.0952 37.5417 33.3333 34.625 36C31.7083 38.6667 28.1667 40 24 40ZM13.2969 22.1429C13.2969 20.5238 14.1042 19.381 15.7188 18.7143C14.1042 18 13.2969 16.8571 13.2969 15.2857C13.2969 14.2381 13.7135 13.3333 14.5469 12.5714C15.3802 11.8095 16.3698 11.4286 17.5156 11.4286C18.401 11.4286 19.1823 11.6667 19.8594 12.1429V11.8571C19.8594 10.8095 20.263 9.90476 21.0703 9.14286C21.8776 8.38095 22.8542 8 24 8C25.1458 8 26.1224 8.38095 26.9297 9.14286C27.737 9.90476 28.1406 10.8095 28.1406 11.8571V12.1429C28.8698 11.6667 29.651 11.4286 30.4844 11.4286C31.6302 11.4286 32.6198 11.8095 33.4531 12.5714C34.2865 13.3333 34.7031 14.2381 34.7031 15.2857C34.7031 16.8571 33.8958 18 32.2812 18.7143C33.8958 19.381 34.7031 20.5238 34.7031 22.1429C34.7031 23.1905 34.2865 24.0833 33.4531 24.8214C32.6198 25.5595 31.6302 25.9286 30.4844 25.9286C29.599 25.9286 28.8177 25.7143 28.1406 25.2857V25.5714C28.1406 26.619 27.737 27.5119 26.9297 28.25C26.1224 28.9881 25.1458 29.3571 24 29.3571C22.8542 29.3571 21.8776 28.9881 21.0703 28.25C20.263 27.5119 19.8594 26.619 19.8594 25.5714V25.2857C19.1302 25.7143 18.349 25.9286 17.5156 25.9286C16.3698 25.9286 15.3802 25.5595 14.5469 24.8214C13.7135 24.0833 13.2969 23.1905 13.2969 22.1429ZM24 14.8571C22.8542 14.8571 21.8776 15.2381 21.0703 16C20.263 16.7619 19.8594 17.6667 19.8594 18.7143C19.8594 19.7619 20.263 20.6548 21.0703 21.3929C21.8776 22.131 22.8542 22.5 24 22.5C25.1458 22.5 26.1224 22.131 26.9297 21.3929C27.737 20.6548 28.1406 19.7619 28.1406 18.7143C28.1406 17.6667 27.737 16.7619 26.9297 16C26.1224 15.2381 25.1458 14.8571 24 14.8571ZM9 26.2857C13.1667 26.2857 16.7083 27.631 19.625 30.3214C22.5417 33.0119 24 36.2381 24 40C19.8333 40 16.2917 38.6667 13.375 36C10.4583 33.3333 9 30.0952 9 26.2857Z" fill="white"/>
</svg>
