<svg width="40" height="34" viewBox="0 0 40 34" fill="none" xmlns="http://www.w3.org/2000/svg">
<path d="M28.75 17.2637C28 17.0532 27.25 16.8427 26.75 16.8427H20V14.7374H27.5C27.5 13.4742 26.5 12.632 25 12.632H15C15 13.8952 16 14.7374 17.5 14.7374V16.8427C16.25 16.8427 15 16.4216 14.5 15.5795L11.75 11.7899C11 10.9478 10 10.5267 9 10.5267H7.5V9.05296C7.5 8.42136 7.25 8.00029 7 7.36869L6.25 5.89496C5.5 4.84229 4 4.21069 2.5 4.21069H0L12.5 18.948C13.5 20.2112 15.25 21.0533 17 21.0533H20V23.1587H17.5V27.3693H16C13.75 27.3693 11.5 28.2115 10 29.4747H7.5V31.58H35V29.4747H32.5C31 28.2115 28.75 27.3693 26.5 27.3693H25V23.1587H22.5V21.0533H26.5C27 21.0533 27.75 21.2639 28.25 21.4744L32.5 23.3692C34.75 24.4219 37.5 24.4219 39.75 23.3692H40L28.75 17.2637Z" fill="#FFFEFE"/>
</svg>
