<svg width="40" height="40" viewBox="0 0 40 40" fill="none" xmlns="http://www.w3.org/2000/svg">
<path d="M20.0001 0C16.7693 0 14.8355 0.492308 13.6063 1.10615C12.9909 1.41385 12.554 1.73692 12.2601 2.06769C11.9647 2.39846 11.7786 2.88462 11.7786 2.88462C11.7303 3.00817 11.6983 3.13745 11.6832 3.26923L10.8647 13.7985C10.854 13.8631 10.8755 13.9677 10.8647 14.0385L10.7693 15.0969C10.7604 15.1926 10.7604 15.2889 10.7693 15.3846C10.7693 20.4615 14.9232 24.6154 20.0001 24.6154C25.077 24.6154 29.2309 20.4615 29.2309 15.3846V15.1446C29.2311 15.1287 29.2311 15.1128 29.2309 15.0969L28.317 3.26923C28.302 3.13745 28.2699 3.00817 28.2217 2.88462C28.2217 2.88462 28.0355 2.39846 27.7401 2.06769C27.4463 1.73538 27.0093 1.41231 26.394 1.10615C25.1647 0.490769 23.2309 0 20.0001 0ZM20.0001 24.6154C9.84627 24.6154 1.53857 29.3938 1.53857 33.7015V40H38.4617V33.7015C38.4617 29.6092 30.9509 25.1015 21.4909 24.6631C20.9946 24.6303 20.4974 24.6144 20.0001 24.6154ZM20.0001 3.07692C22.9232 3.07692 24.3832 3.53846 25.0001 3.84615C25.2063 3.94923 25.2309 3.98923 25.2893 4.03846L25.914 11.9231C24.4986 12.0092 22.5693 12.3077 20.0001 12.3077C17.4309 12.3077 15.5032 12.0092 14.0863 11.9231L14.7109 4.03846C14.7678 3.98923 14.794 3.94923 15.0001 3.84615C15.617 3.53846 17.077 3.07692 20.0001 3.07692ZM18.7493 4.61538V6.44308H16.9232V8.94308H18.7509V10.7692H21.2493V8.94154H23.077V6.44308H21.2493V4.61538H18.7509H18.7493ZM15.3847 28.0769L19.3278 36.9231H4.6155V33.7015C4.6155 32.5554 8.53857 29.1985 15.3847 28.0769ZM24.6155 28.0769C31.4617 29.2 35.3847 32.5554 35.3847 33.7015V36.9231H20.6724L24.6155 28.0769Z" fill="white"/>
</svg>
