<svg width="32" height="32" viewBox="0 0 32 32" fill="none" xmlns="http://www.w3.org/2000/svg">
<path d="M30.5459 13.5285C30.4167 13.5988 30.2915 13.6762 30.1709 13.7605C30.0477 14.2679 29.8839 14.7645 29.6809 15.2455L29.1204 14.673C28.7214 15.093 28.3714 15.552 28.1604 15.965C27.7124 16.846 26.5264 16.4475 25.5254 15.081L25.2909 14.7595C24.6909 16.0335 24.2354 17.7265 24.5134 19.734L22.0959 17.2645L19.6444 19.7585C19.6444 19.7585 20.0719 15.2575 23.5439 10.972C23.7569 11.159 24.0614 11.243 24.3959 11.22C24.2969 11.9975 24.5349 12.947 25.0909 13.706L25.8909 14.8005C26.0314 14.993 26.1774 15.1655 26.3274 15.319C26.8449 15.8485 27.2724 15.9985 27.4999 15.9625C27.5754 15.95 27.7784 15.9585 27.7784 15.772C27.7784 13.637 24.6639 11.388 24.4214 11.2165C24.8086 11.1787 25.1771 11.0317 25.4839 10.7925L25.5494 10.7415C25.6019 10.7745 25.6604 10.812 25.6959 10.8305L26.1214 11.054C26.8634 11.446 27.0524 11.2125 26.5404 10.5385L26.2484 10.153C26.2189 10.114 26.1874 10.081 26.1564 10.046L26.1584 10.042L26.1544 10.044L26.1484 10.0365C26.1454 10.0425 26.1404 10.0465 26.1379 10.052C25.5019 10.435 24.7384 10.4485 24.3529 10.0545C23.9674 9.6595 23.9799 8.882 24.3549 8.233C24.3609 8.23 24.3649 8.2235 24.3709 8.221L24.3634 8.2145L24.3654 8.211L24.3619 8.213C24.3274 8.1805 24.2939 8.1475 24.2549 8.117L23.8779 7.8185C23.2169 7.2945 22.9889 7.489 23.3729 8.2465L23.5909 8.6805C23.6074 8.713 23.6399 8.784 23.6699 8.848L23.6319 8.8995C23.3962 9.2159 23.2523 9.59114 23.2159 9.984C23.0629 9.759 20.8519 6.553 18.7539 6.553C18.5704 6.553 18.5789 6.76 18.5674 6.8375C18.5324 7.07 18.6789 7.507 19.1974 8.0355C19.3459 8.1875 19.5169 8.3375 19.7044 8.48L20.7769 9.2975C21.5204 9.8655 22.4504 10.109 23.2124 10.007C23.1889 10.3485 23.2709 10.6595 23.4534 10.8775C19.2559 14.4215 14.8474 14.8565 14.8474 14.8565L17.2919 12.3565L14.8744 9.886C16.8409 10.1705 18.4984 9.7055 19.7459 9.093L19.4314 8.853C18.0924 7.831 17.7039 6.6205 18.5654 6.1615C18.9699 5.9465 19.4189 5.5895 19.8299 5.1825L19.4599 4.807C19.7962 4.66417 20.1404 4.54096 20.4909 4.438C20.6584 4.2185 20.8014 4 20.9134 3.7905C18.8699 4.2795 17.0374 5.398 15.9709 6.7995C14.4794 4.875 11.6744 3.5 8.86042 3.5H8.85942C5.45192 3.5 2.76792 5.4785 1.49642 8.9275C-1.39808 16.783 9.11142 23.667 13.5984 26.606C14.3214 27.079 15.1399 27.616 15.3009 27.783L15.9274 28.5L16.6259 27.8545C16.7419 27.752 17.2784 27.4085 17.7974 27.0765C21.3069 24.8305 29.5524 19.5495 30.8334 13.2915C30.755 13.3895 30.6571 13.4702 30.5459 13.5285Z" fill="white"/>
<path d="M30.5009 8.91746C29.2179 5.48896 26.5299 3.52246 23.1279 3.52246C22.9194 3.52246 22.7114 3.53196 22.5034 3.54596C22.8604 3.77396 23.2344 4.13096 23.5859 4.61146L24.3859 5.70596C24.9354 6.45846 25.2049 7.36146 25.1889 8.17546C25.4029 8.23796 25.6094 8.35246 25.7869 8.53446L25.8404 8.58896C26.0179 8.77096 26.1309 8.98196 26.1924 9.19996C26.9884 9.18396 27.8709 9.45746 28.6069 10.0185L29.6799 10.836C30.3829 11.373 30.8214 11.961 30.9569 12.466C31.0845 11.2637 30.9283 10.0484 30.5009 8.91746Z" fill="white"/>
</svg>
