<svg width="28" height="32" viewBox="0 0 28 32" fill="none" xmlns="http://www.w3.org/2000/svg">
<g clip-path="url(#clip0)">
<path d="M27.7487 6.01556C27.0605 3.18931 24.8043 0.886814 21.998 0.158064C19.9862 -0.364435 18.0605 0.476815 16.4268 1.67869C16.2237 1.82806 15.9918 1.91181 15.7705 2.02119L17.5405 3.15931C18.0043 3.45744 18.1393 4.07619 17.8405 4.54119C17.5618 4.97556 16.9487 5.15744 16.4587 4.84119L10.1768 0.80244C8.88304 0.124314 7.46554 -0.222561 6.00117 0.158064C3.19492 0.887439 0.938668 3.18931 0.250543 6.01556C-0.382582 8.61681 0.224293 11.0662 1.59429 12.9174C3.05429 14.8906 3.63679 17.2087 3.86242 19.6268C4.13742 22.5743 4.50804 25.5118 5.17117 28.3968L5.65867 30.5187C5.85804 31.3856 6.62679 31.9999 7.51304 31.9999C8.38617 31.9999 9.14742 31.4031 9.35929 30.5524L11.5137 21.9012C11.7987 20.7562 12.8237 19.9537 13.9987 19.9537C15.1737 19.9537 16.1987 20.7568 16.4837 21.9012L18.638 30.5524C18.8499 31.4031 19.6112 31.9999 20.4843 31.9999C21.3705 31.9999 22.1393 31.3856 22.3387 30.5187L22.8262 28.3968C23.4893 25.5124 23.8593 22.5743 24.1349 19.6268C24.3605 17.2081 24.943 14.8906 26.403 12.9174C27.7749 11.0668 28.3818 8.61744 27.7487 6.01556Z" fill="white"/>
</g>
<defs>
<clipPath id="clip0">
<rect width="28" height="32" fill="white"/>
</clipPath>
</defs>
</svg>
